HIERARCHY
ROOT Hips
{
  OFFSET 71.7574 47.5266 353.468
  CHANNELS 6 Xposition Yposition Zposition Zrotation Xrotation Yrotation
  JOINT Spine
  {
    OFFSET 0 0 0
    CHANNELS 3 Zrotation Xrotation Yrotation
    JOINT Spine1
    {
      OFFSET 19 0 0
      CHANNELS 3 Zrotation Xrotation Yrotation
      JOINT Neck
      {
        OFFSET 22.5 0.6 0
        CHANNELS 3 Zrotation Xrotation Yrotation
        JOINT Head
        {
          OFFSET 14 0.0308777 0
          CHANNELS 3 Zrotation Xrotation Yrotation
          End Site
          {
            OFFSET 17 0 0
          }
        }
      }
      JOINT LeftShoulder
      {
        OFFSET 19.8 3.7 4.3
        CHANNELS 3 Zrotation Xrotation Yrotation
        JOINT LeftArm
        {
          OFFSET 8 0 0
          CHANNELS 3 Zrotation Xrotation Yrotation
          JOINT LeftForeArm
          {
            OFFSET 15.2 0 0
            CHANNELS 3 Zrotation Xrotation Yrotation
            JOINT LeftHand
            {
              OFFSET 17.8 0 0
              CHANNELS 3 Zrotation Xrotation Yrotation
              End Site
              {
                OFFSET 7.2 0 0
              }
            }
          }
        }
      }
      JOINT RightShoulder
      {
        OFFSET 19.8 3.7 -4.3
        CHANNELS 3 Zrotation Xrotation Yrotation
        JOINT RightArm
        {
          OFFSET 8 0 0.151654
          CHANNELS 3 Zrotation Xrotation Yrotation
          JOINT RightForeArm
          {
            OFFSET 15.2 0 0
            CHANNELS 3 Zrotation Xrotation Yrotation
            JOINT RightHand
            {
              OFFSET 17.8 0 0
              CHANNELS 3 Zrotation Xrotation Yrotation
              End Site
              {
                OFFSET 7.2 0 0
              }
            }
          }
        }
      }
    }
  }
  JOINT LeftUpLeg
  {
    OFFSET 5.98425 -7.666 4.78879
    CHANNELS 3 Zrotation Xrotation Yrotation
    JOINT LeftLeg
    {
      OFFSET 16 0 0
      CHANNELS 3 Zrotation Xrotation Yrotation
      JOINT LeftFoot
      {
        OFFSET 18 0 0
        CHANNELS 3 Zrotation Xrotation Yrotation
        End Site
        {
          OFFSET 0 -10.8 0
        }
      }
    }
  }
  JOINT RightUpLeg
  {
    OFFSET 5.98425 -7.66598 -4.78879
    CHANNELS 3 Zrotation Xrotation Yrotation
    JOINT RightLeg
    {
      OFFSET 16 0 0
      CHANNELS 3 Zrotation Xrotation Yrotation
      JOINT RightFoot
      {
        OFFSET 18 0 0
        CHANNELS 3 Zrotation Xrotation Yrotation
        End Site
        {
          OFFSET 0 -10.8 0
        }
      }
    }
  }
  JOINT Tail
  {
    OFFSET 6.83696 -0.722574 0
    CHANNELS 3 Zrotation Xrotation Yrotation
    JOINT Tail1
    {
      OFFSET 12 0 0
      CHANNELS 3 Zrotation Xrotation Yrotation
      End Site
      {
        OFFSET 12 0 0
      }
    }
  }
}
MOTION
Frames:	12
Frame Time:	0.0166667
9.87837 46.2104 -295.29 -4.80369 -8.18972 88.453 -166.05 2.58866 1.17388 -4.22812 3.51008 -4.73656 1.90751 -3.1725 0.104307 -95.767 83.0978 112.098 -107.528 -28.7744 -147.552 130.218 -40.3786 -131.334 -55.7957 14.2764 -0.40587 -19.8601 3.79039 -16.7408 72.8676 -34.0095 45.5224 32.189 -6.53112 -50.35 -64.7911 -14.9465 -4.0278 -7.81815 1.79882 -3.29431 -98.0458 -6.8555 -17.825 74.6946 19.0919 7.88848 45.4797 -4.4394 -8.04753 -135.219 1.51464 -1.98008 66.8034 -3.20725 -4.04338 57.4087 1.03651 -1.54576 -34.1116 44.2469 -8.62345 7.6888 -43.0749 4.12872 
9.50192 46.3455 -294.103 -3.36402 -7.09574 88.0057 -167.033 2.10127 1.3424 -3.79865 3.33276 -6.38328 2.25629 -3.58596 1.11971 -92.3324 83.4544 108.872 -107.245 -28.2884 -147.958 131.676 -41.2011 -131.07 -54.4497 14.5251 -0.517309 -19.4933 3.79416 -16.8499 72.9036 -34.3785 46.3732 33.5523 -5.10377 -51.9519 -60.7192 -15.4174 -0.831022 -6.0867 1.36519 -3.20798 -98.0831 -7.41561 -15.0702 73.9265 16.6939 7.20944 48.1726 -4.06386 -7.426 -135.461 1.13094 -0.732567 68.1485 -3.58325 -4.38888 56.1003 1.09938 -1.4126 -35.7515 46.1959 -9.45514 7.98031 -42.4964 4.56952 
9.16642 46.5368 -292.804 -2.26079 -6.05371 87.3033 -167.55 1.6928 0.985016 -3.88772 3.26856 -7.57772 2.71051 -3.9053 2.02261 -89.5925 83.699 106.165 -106.901 -27.7028 -148.459 132.115 -41.8528 -131.175 -53.2192 15.2215 -0.745085 -19.4767 3.59183 -16.3392 73.0264 -34.7002 47.3742 34.3216 -6.91947 -52.8677 -58.532 -14.5365 2.05377 -3.504 0.8413 -2.77358 -98.0194 -8.18083 -13.3026 72.9219 14.7147 6.91684 51.1101 -3.74064 -6.90245 -135.612 0.442534 -0.400806 69.4635 -3.83039 -4.0985 55.5035 1.07468 -1.38735 -37.5066 47.6725 -10.0341 7.649 -41.955 4.50464 
8.90583 46.7696 -291.427 -1.63213 -5.01093 86.581 -168.392 1.30205 0.524521 -3.30507 3.13872 -8.535 2.71527 -3.98135 2.85007 -87.7812 84.088 104.411 -106.713 -27.4948 -148.416 132.672 -42.1857 -131.14 -51.2575 16.0862 -0.905853 -20.1724 3.58746 -16.202 72.9378 -35.069 47.8263 34.8952 -9.94096 -51.843 -59.6034 -15.7351 1.45276 -6.1633 0.633059 -0.50736 -97.8248 -8.81183 -12.7106 71.739 14.0859 7.05639 53.1651 -3.65247 -6.70431 -135.126 0.0637149 -0.230499 69.9146 -4.45073 -3.96409 55.1942 1.13996 -1.28049 -39.0915 48.6024 -10.6397 6.94649 -41.5899 4.2328 
8.71003 47.0155 -290.004 -1.62956 -3.93115 85.7554 -169.534 1.05913 -0.0623645 -2.12951 3.09341 -9.3708 2.19063 -3.80703 3.59353 -86.4768 84.7004 103.57 -106.744 -27.6956 -147.95 133.409 -42.6314 -130.835 -49.8997 15.0508 -0.58163 -19.9417 3.6449 -16.3485 72.8669 -35.3718 48.196 34.1996 -13.967 -50.4866 -61.7185 -16.6472 0.170098 -8.21355 0.413369 1.49465 -99.0953 -9.27441 -13.9211 72.2067 13.836 7.79626 56.2599 -3.75238 -6.7586 -134.181 -0.041632 -0.428471 69.7698 -5.34727 -3.82826 55.086 1.30513 -1.10902 -40.4338 48.9103 -11.4624 6.08937 -41.3236 3.81754 
8.62712 47.1778 -288.62 -2.10017 -3.07607 84.8884 -170.605 0.983722 -0.468144 -0.871507 3.22729 -10.5762 1.92133 -3.47386 4.5108 -87.6963 85.2283 104.887 -106.914 -28.008 -147.639 133.271 -43.0347 -131.134 -49.1568 14.3076 -0.370525 -19.3199 3.35214 -15.6162 73.1884 -35.0594 48.5501 33.8566 -17.0565 -50.1649 -63.1438 -17.551 0.278579 -9.33708 0.0176847 3.39648 -101.145 -8.94352 -14.5259 74.6016 12.7989 7.20745 56.2685 -3.49186 -6.47954 -133.259 0.131644 -0.782277 69.9718 -6.42185 -3.78188 55.0793 1.49406 -0.935222 -41.236 48.6513 -12.3923 5.2329 -40.9594 3.25868 
8.58501 47.2487 -287.243 -2.71136 -2.35372 84.1165 -171.708 0.899653 -1.18461 0.328932 3.22807 -10.9908 1.48324 -3.00187 4.96628 -89.4488 85.6745 108.317 -106.937 -28.2558 -147.029 132.558 -43.4602 -131.734 -48.8803 13.3633 -0.0315719 -18.207 2.68645 -13.8613 72.9463 -35.1219 47.9529 34.8523 -18.1505 -50.7595 -63.7766 -18.2591 0.707141 -10.0676 -0.253241 4.41675 -104.131 -8.2053 -14.9601 78.6068 11.135 6.12181 53.0244 -3.02915 -6.0222 -132.364 0.383304 -1.37957 70.4324 -7.24406 -3.66843 54.9511 1.62735 -0.81358 -41.7751 48.199 -13.2642 4.29933 -40.5527 2.54478 
8.5545 47.2566 -285.881 -3.34587 -1.8802 83.4805 -172.351 0.929491 -1.85038 0.906797 3.35916 -11.2534 1.80678 -2.62 5.53552 -90.8211 86.4189 109.112 -106.935 -28.4251 -146.56 130.68 -43.686 -132.781 -49.236 12.2302 0.191702 -16.054 1.55396 -10.5459 73.0151 -34.7106 47.361 35.7618 -19.9107 -51.5813 -64.5423 -19.7754 1.47756 -11.4357 -0.476695 5.28274 -107.191 -7.12177 -15.0625 82.3992 12.0671 4.92645 48.6041 -2.89607 -5.87053 -131.467 0.685039 -1.86551 71.3265 -7.79743 -3.62741 54.8585 1.69725 -0.752534 -42.1495 47.646 -13.7589 3.6655 -40.3142 1.98919 
8.52142 47.2292 -284.546 -3.93702 -1.64528 82.7785 -172.514 0.9769 -2.79822 0.9473 3.52766 -11.0613 2.09992 -2.29039 5.49785 -93.9976 86.5693 112.857 -107.038 -28.8337 -145.796 127.101 -43.3658 -133.866 -51.2651 8.54422 0.784395 -11.544 0.393006 -6.12054 73.0034 -34.2472 46.4098 37.3375 -21.9481 -51.3485 -66.0477 -20.2269 1.19558 -12.5381 -0.871649 6.83722 -110.847 -6.01271 -15.6984 86.9887 13.6657 4.06163 44.1946 -2.91438 -5.90967 -130.496 0.812116 -2.39254 72.4676 -8.24126 -3.48971 54.7339 1.72695 -0.722129 -42.4292 46.8612 -13.7608 3.30575 -40.0237 1.5217 
8.53403 47.22 -283.253 -4.47746 -1.76666 82.0175 -172.123 0.949769 -3.87873 0.695202 3.64799 -10.664 2.3009 -1.87588 5.63552 -92.1403 87.7592 111.514 -107.322 -29.6609 -144.556 122.513 -41.8622 -134.406 -54.8062 -1.75587 1.9875 -1.43021 0.412916 -2.44138 73.0635 -33.5861 45.2468 39.2024 -23.6159 -50.9053 -67.6557 -20.6983 0.981882 -12.9393 -1.01924 7.40792 -114.603 -4.6104 -15.8253 91.3129 15.0301 3.13287 41.5784 -2.93726 -5.93287 -129.1 0.609518 -3.12479 73.5366 -8.68493 -3.07448 54.6313 1.73523 -0.721523 -42.7575 46.0882 -13.1755 3.2733 -40.0355 1.25225 
8.53758 47.1849 -281.973 -4.90708 -2.06508 81.3045 -171.564 0.924689 -4.99171 0.420743 3.76635 -10.1432 2.70647 -1.7879 5.58981 -91.3186 88.0577 110.68 -107.778 -30.6701 -143.471 117.112 -38.9794 -135.137 -59.4133 -20.1412 4.21367 14.9653 2.21668 -4.209 73.1642 -33.0014 44.3297 41.4439 -25.1732 -50.3402 -69.2158 -21.1912 0.615831 -13.5705 -1.08428 7.70091 -118.529 -3.62758 -16.1431 94.9384 15.0799 2.54521 38.869 -2.8137 -5.74889 -127.538 0.461844 -3.34063 74.5367 -9.30883 -2.95837 54.658 1.80827 -0.65123 -43.0683 45.3201 -12.2251 3.36379 -40.1803 1.06186 
8.50355 47.1356 -280.739 -5.42542 -2.68907 80.2484 -170.559 0.786205 -6.65771 0.00587767 3.86494 -9.37481 3.0375 -1.71876 5.35607 -94.4463 87.9555 113.737 -108.325 -31.882 -142.256 114.331 -36.5604 -134.793 -61.8843 -40.8812 7.56362 27.3157 2.23077 -18.5456 73.2766 -32.7746 44.1935 43.5249 -27.05 -50.2088 -70.7337 -20.5011 -0.119751 -13.3952 -1.15746 7.90047 -122.365 -3.04096 -16.9546 97.6345 14.6221 2.35977 35.9417 -2.62614 -5.45048 -125.694 0.165357 -3.60415 75.5797 -10.1022 -2.7663 54.6539 1.93858 -0.524096 -43.5053 44.2935 -10.6178 3.61389 -40.6864 1.02271 
